<svg xmlns="http://www.w3.org/2000/svg" version="1.1" xmlns:xlink="http://www.w3.org/1999/xlink" xmlns:svgjs="http://svgjs.dev/svgjs" width="2000" height="686" viewBox="0 0 2000 686"><g transform="matrix(1,0,0,1,-1.2121212121212466,-0.7608702360364532)"><svg viewBox="0 0 396 136" data-background-color="#ffffff" preserveAspectRatio="xMidYMid meet" height="686" width="2000" xmlns="http://www.w3.org/2000/svg" xmlns:xlink="http://www.w3.org/1999/xlink"><g id="tight-bounds" transform="matrix(1,0,0,1,0.2400000000000091,0.15084307886436932)"><svg viewBox="0 0 395.52 135.69831384227126" height="135.69831384227126" width="395.52"><g><svg viewBox="0 0 664.1362580429904 227.85742915136876" height="135.69831384227126" width="395.52"><g transform="matrix(1,0,0,1,268.61625804299047,44.11084786816704)"><svg viewBox="0 0 395.52 139.63573341503468" height="139.63573341503468" width="395.52"><g id="textblocktransform"><svg viewBox="0 0 395.52 139.63573341503468" height="139.63573341503468" width="395.52" id="textblock"><g><svg viewBox="0 0 395.52 86.3256512555738" height="86.3256512555738" width="395.52"><g transform="matrix(1,0,0,1,0,0)"><svg width="395.52" viewBox="1.8 -37 213.03 46.5" height="86.3256512555738" data-palette-color="#212529"><path d="M16.05 0.5L16.05 0.5Q11.4 0.5 8.28-0.88 5.15-2.25 3.53-4.48 1.9-6.7 1.8-9.15L1.8-9.15Q1.8-9.6 2.1-9.9 2.4-10.2 2.85-10.2L2.85-10.2 7.3-10.2Q7.95-10.2 8.28-9.93 8.6-9.65 8.85-9.25L8.85-9.25Q9.15-8.3 10-7.38 10.85-6.45 12.33-5.85 13.8-5.25 16.05-5.25L16.05-5.25Q19.65-5.25 21.43-6.45 23.2-7.65 23.2-9.7L23.2-9.7Q23.2-11.15 22.25-12.03 21.3-12.9 19.33-13.63 17.35-14.35 14.1-15.15L14.1-15.15Q10.35-16.05 7.83-17.32 5.3-18.6 4.03-20.55 2.75-22.5 2.75-25.5L2.75-25.5Q2.75-28.4 4.33-30.65 5.9-32.9 8.83-34.2 11.75-35.5 15.8-35.5L15.8-35.5Q19.05-35.5 21.55-34.63 24.05-33.75 25.7-32.33 27.35-30.9 28.23-29.28 29.1-27.65 29.15-26.1L29.15-26.1Q29.15-25.7 28.88-25.38 28.6-25.05 28.1-25.05L28.1-25.05 23.45-25.05Q23.05-25.05 22.65-25.25 22.25-25.45 22-26L22-26Q21.7-27.55 20.05-28.65 18.4-29.75 15.8-29.75L15.8-29.75Q13.1-29.75 11.45-28.75 9.8-27.75 9.8-25.65L9.8-25.65Q9.8-24.25 10.63-23.33 11.45-22.4 13.28-21.7 15.1-21 18.1-20.2L18.1-20.2Q22.35-19.25 25.05-18 27.75-16.75 29-14.83 30.25-12.9 30.25-9.95L30.25-9.95Q30.25-6.65 28.48-4.33 26.7-2 23.5-0.75 20.3 0.5 16.05 0.5ZM40.9 9.5L36.65 9.5Q36.15 9.5 35.8 9.15 35.45 8.8 35.45 8.3L35.45 8.3 35.45-24.8Q35.45-25.3 35.8-25.65 36.15-26 36.65-26L36.65-26 40.6-26Q41.15-26 41.47-25.65 41.8-25.3 41.8-24.8L41.8-24.8 41.8-22.8Q43-24.4 44.95-25.45 46.9-26.5 49.8-26.5L49.8-26.5Q52.45-26.5 54.4-25.65 56.35-24.8 57.65-23.23 58.95-21.65 59.65-19.5 60.35-17.35 60.45-14.75L60.45-14.75Q60.5-13.9 60.5-13 60.5-12.1 60.45-11.2L60.45-11.2Q60.4-8.7 59.7-6.58 59-4.45 57.67-2.88 56.35-1.3 54.4-0.4 52.45 0.5 49.8 0.5L49.8 0.5Q47.1 0.5 45.2-0.48 43.3-1.45 42.1-3.05L42.1-3.05 42.1 8.3Q42.1 8.8 41.77 9.15 41.45 9.5 40.9 9.5L40.9 9.5ZM47.95-4.85L47.95-4.85Q50.1-4.85 51.3-5.78 52.5-6.7 53.05-8.2 53.6-9.7 53.7-11.5L53.7-11.5Q53.75-13 53.7-14.5L53.7-14.5Q53.6-16.3 53.05-17.8 52.5-19.3 51.3-20.23 50.1-21.15 47.95-21.15L47.95-21.15Q45.9-21.15 44.62-20.2 43.35-19.25 42.77-17.78 42.2-16.3 42.1-14.75L42.1-14.75Q42.05-13.85 42.05-12.85 42.05-11.85 42.1-10.9L42.1-10.9Q42.15-9.4 42.8-8.03 43.45-6.65 44.7-5.75 45.95-4.85 47.95-4.85ZM77.6 0.5L77.6 0.5Q73.6 0.5 70.87-0.9 68.15-2.3 66.72-4.85 65.3-7.4 65.1-10.8L65.1-10.8Q65.05-11.7 65.05-13 65.05-14.3 65.1-15.2L65.1-15.2Q65.3-18.65 66.77-21.18 68.25-23.7 70.97-25.1 73.7-26.5 77.6-26.5L77.6-26.5Q81.5-26.5 84.22-25.1 86.95-23.7 88.42-21.18 89.9-18.65 90.1-15.2L90.1-15.2Q90.15-14.3 90.15-13 90.15-11.7 90.1-10.8L90.1-10.8Q89.9-7.4 88.47-4.85 87.05-2.3 84.32-0.9 81.6 0.5 77.6 0.5ZM77.6-4.45L77.6-4.45Q80.25-4.45 81.7-6.13 83.15-7.8 83.3-11.05L83.3-11.05Q83.35-11.8 83.35-13 83.35-14.2 83.3-14.95L83.3-14.95Q83.15-18.2 81.7-19.88 80.25-21.55 77.6-21.55L77.6-21.55Q74.95-21.55 73.5-19.88 72.05-18.2 71.9-14.95L71.9-14.95Q71.85-14.2 71.85-13 71.85-11.8 71.9-11.05L71.9-11.05Q72.05-7.8 73.5-6.13 74.95-4.45 77.6-4.45ZM107.19 0.5L107.19 0.5Q103.19 0.5 100.47-0.9 97.74-2.3 96.32-4.85 94.89-7.4 94.69-10.8L94.69-10.8Q94.64-11.7 94.64-13 94.64-14.3 94.69-15.2L94.69-15.2Q94.89-18.65 96.37-21.18 97.84-23.7 100.57-25.1 103.29-26.5 107.19-26.5L107.19-26.5Q111.09-26.5 113.82-25.1 116.54-23.7 118.02-21.18 119.49-18.65 119.69-15.2L119.69-15.2Q119.74-14.3 119.74-13 119.74-11.7 119.69-10.8L119.69-10.8Q119.49-7.4 118.07-4.85 116.64-2.3 113.92-0.9 111.19 0.5 107.19 0.5ZM107.19-4.45L107.19-4.45Q109.84-4.45 111.29-6.13 112.74-7.8 112.89-11.05L112.89-11.05Q112.94-11.8 112.94-13 112.94-14.2 112.89-14.95L112.89-14.95Q112.74-18.2 111.29-19.88 109.84-21.55 107.19-21.55L107.19-21.55Q104.54-21.55 103.09-19.88 101.64-18.2 101.49-14.95L101.49-14.95Q101.44-14.2 101.44-13 101.44-11.8 101.49-11.05L101.49-11.05Q101.64-7.8 103.09-6.13 104.54-4.45 107.19-4.45ZM130.89 0L126.49 0Q125.99 0 125.64-0.35 125.29-0.7 125.29-1.2L125.29-1.2 125.29-24.8Q125.29-25.3 125.64-25.65 125.99-26 126.49-26L126.49-26 130.59-26Q131.09-26 131.44-25.65 131.79-25.3 131.79-24.8L131.79-24.8 131.79-22.75Q133.09-24.35 135.12-25.43 137.14-26.5 140.14-26.5L140.14-26.5Q143.19-26.5 145.44-25.13 147.69-23.75 148.92-21.25 150.14-18.75 150.14-15.25L150.14-15.25 150.14-1.2Q150.14-0.7 149.79-0.35 149.44 0 148.94 0L148.94 0 144.54 0Q144.04 0 143.69-0.35 143.34-0.7 143.34-1.2L143.34-1.2 143.34-14.95Q143.34-17.85 141.92-19.5 140.49-21.15 137.79-21.15L137.79-21.15Q135.19-21.15 133.64-19.5 132.09-17.85 132.09-14.95L132.09-14.95 132.09-1.2Q132.09-0.7 131.74-0.35 131.39 0 130.89 0L130.89 0ZM164.59 0L160.49 0Q159.99 0 159.64-0.35 159.29-0.7 159.29-1.2L159.29-1.2 159.29-20.7 155.24-20.7Q154.74-20.7 154.39-21.05 154.04-21.4 154.04-21.95L154.04-21.95 154.04-24.8Q154.04-25.3 154.39-25.65 154.74-26 155.24-26L155.24-26 159.29-26 159.29-28.05Q159.29-31.05 160.39-33.02 161.49-35 163.64-36 165.79-37 169.09-37L169.09-37 172.49-37Q173.04-37 173.36-36.65 173.69-36.3 173.69-35.8L173.69-35.8 173.69-32.95Q173.69-32.4 173.36-32.05 173.04-31.7 172.49-31.7L172.49-31.7 169.29-31.7Q167.29-31.7 166.54-30.7 165.79-29.7 165.79-27.8L165.79-27.8 165.79-26 171.99-26Q172.54-26 172.86-25.65 173.19-25.3 173.19-24.8L173.19-24.8 173.19-21.95Q173.19-21.4 172.86-21.05 172.54-20.7 171.99-20.7L171.99-20.7 165.79-20.7 165.79-1.2Q165.79-0.7 165.44-0.35 165.09 0 164.59 0L164.59 0ZM186.83 0.5L186.83 0.5Q183.78 0.5 181.56-0.88 179.33-2.25 178.13-4.78 176.94-7.3 176.94-10.75L176.94-10.75 176.94-24.8Q176.94-25.3 177.28-25.65 177.63-26 178.13-26L178.13-26 182.53-26Q183.08-26 183.41-25.65 183.73-25.3 183.73-24.8L183.73-24.8 183.73-11.05Q183.73-4.85 189.19-4.85L189.19-4.85Q191.78-4.85 193.31-6.5 194.83-8.15 194.83-11.05L194.83-11.05 194.83-24.8Q194.83-25.3 195.19-25.65 195.53-26 196.03-26L196.03-26 200.44-26Q200.94-26 201.28-25.65 201.63-25.3 201.63-24.8L201.63-24.8 201.63-1.2Q201.63-0.7 201.28-0.35 200.94 0 200.44 0L200.44 0 196.38 0Q195.83 0 195.51-0.35 195.19-0.7 195.19-1.2L195.19-1.2 195.19-3.25Q193.83-1.5 191.83-0.5 189.83 0.5 186.83 0.5ZM213.63 0L209.48 0Q208.98 0 208.63-0.35 208.28-0.7 208.28-1.2L208.28-1.2 208.28-34.3Q208.28-34.8 208.63-35.15 208.98-35.5 209.48-35.5L209.48-35.5 213.63-35.5Q214.13-35.5 214.48-35.15 214.83-34.8 214.83-34.3L214.83-34.3 214.83-1.2Q214.83-0.7 214.48-0.35 214.13 0 213.63 0L213.63 0Z" opacity="1" transform="matrix(1,0,0,1,0,0)" fill="#212529" class="wordmark-text-0" data-fill-palette-color="primary" id="text-0"></path></svg></g></svg></g><g transform="matrix(1,0,0,1,0,106.70506570138464)"><svg viewBox="0 0 375.74399999999997 32.930667713650045" height="32.930667713650045" width="375.74399999999997"><g transform="matrix(1,0,0,1,0,0)"><svg width="375.74399999999997" viewBox="2.86 -39.04 559.58 49.05" height="32.930667713650045" data-palette-color="#6b757d"><path d="M9.84-13.99L23.85-13.99 23.85-21Q23.85-22.44 23.3-23.72 22.75-25 21.8-25.95 20.85-26.9 19.57-27.45 18.29-28 16.85-28L16.85-28Q15.41-28 14.12-27.45 12.84-26.9 11.89-25.95 10.94-25 10.39-23.72 9.84-22.44 9.84-21L9.84-21 9.84-13.99ZM30.86-21L30.86 0 23.85 0 23.85-7.01 9.84-7.01 9.84 0 2.86 0 2.86-21Q2.86-23.9 3.96-26.45 5.05-29 6.95-30.91 8.84-32.81 11.39-33.91 13.94-35.01 16.85-35.01L16.85-35.01Q19.75-35.01 22.3-33.91 24.85-32.81 26.76-30.91 28.66-29 29.76-26.45 30.86-23.9 30.86-21L30.86-21ZM85.66-25L85.66 0 78.68 0 78.68-25Q78.68-25.73 78.4-26.37 78.12-27 77.64-27.48 77.17-27.95 76.53-28.22 75.9-28.49 75.17-28.49L75.17-28.49Q74.43-28.49 73.8-28.22 73.16-27.95 72.69-27.48 72.21-27 71.94-26.37 71.67-25.73 71.67-25L71.67-25 71.67 0 64.67 0 64.67-25Q64.67-25.73 64.4-26.37 64.13-27 63.65-27.48 63.18-27.95 62.54-28.22 61.91-28.49 61.18-28.49L61.18-28.49Q60.44-28.49 59.81-28.22 59.17-27.95 58.7-27.48 58.22-27 57.95-26.37 57.69-25.73 57.69-25L57.69-25 57.69 0 50.68 0 50.68-25Q50.68-27.17 51.5-29.09 52.31-31.01 53.74-32.43 55.17-33.86 57.09-34.68 59-35.5 61.18-35.5L61.18-35.5Q63.13-35.5 64.94-34.8 66.74-34.11 68.18-32.79L68.18-32.79Q69.62-34.11 71.42-34.8 73.21-35.5 75.17-35.5L75.17-35.5Q77.34-35.5 79.26-34.68 81.17-33.86 82.6-32.43 84.03-31.01 84.85-29.09 85.66-27.17 85.66-25L85.66-25ZM113.81-21.46L101.31-6.4Q101.7-6.27 102.09-6.24 102.48-6.2 102.87-6.2L102.87-6.2Q103.85-6.2 104.75-6.47 105.66-6.74 106.45-7.24 107.24-7.74 107.87-8.46 108.49-9.18 108.88-10.06L108.88-10.06 113.76-5.15Q112.83-3.83 111.63-2.78 110.42-1.73 109.01-1 107.61-0.27 106.06 0.11 104.51 0.49 102.87 0.49L102.87 0.49Q100.11 0.49 97.69-0.54 95.26-1.56 93.44-3.39 91.62-5.22 90.57-7.75 89.52-10.28 89.52-13.31L89.52-13.31Q89.52-16.41 90.57-18.97 91.62-21.53 93.44-23.34 95.26-25.15 97.69-26.15 100.11-27.15 102.87-27.15L102.87-27.15Q104.51-27.15 106.07-26.76 107.63-26.37 109.04-25.63 110.44-24.9 111.66-23.84 112.88-22.78 113.81-21.46L113.81-21.46ZM96.97-9.84L104.73-20.14Q104.26-20.31 103.81-20.36 103.36-20.41 102.87-20.41L102.87-20.41Q101.51-20.41 100.3-19.91 99.09-19.41 98.2-18.48 97.31-17.55 96.79-16.25 96.28-14.94 96.28-13.31L96.28-13.31Q96.28-12.94 96.32-12.48 96.35-12.01 96.44-11.54 96.53-11.06 96.65-10.62 96.77-10.18 96.97-9.84L96.97-9.84ZM123.87-36.55L123.87 0 117.15 0 117.15-36.55 123.87-36.55ZM147.11 0L142.05 0Q139.64 0 137.51-0.92 135.39-1.83 133.79-3.43 132.19-5.03 131.27-7.15 130.36-9.28 130.36-11.69L130.36-11.69 130.36-19.46 127.11-19.46 127.11-26.1 130.36-26.1 130.36-36.55 137-36.55 137-26.1 147.11-26.1 147.11-19.46 137-19.46 137-11.69Q137-10.64 137.39-9.73 137.78-8.81 138.46-8.13 139.15-7.45 140.08-7.04 141-6.64 142.05-6.64L142.05-6.64 147.11-6.64 147.11 0ZM158.7-33.25L158.7-33.25Q158.7-32.32 158.35-31.52 157.99-30.71 157.38-30.11 156.77-29.52 155.95-29.16 155.14-28.81 154.21-28.81L154.21-28.81Q153.28-28.81 152.46-29.16 151.65-29.52 151.05-30.11 150.45-30.71 150.09-31.52 149.74-32.32 149.74-33.25L149.74-33.25Q149.74-34.16 150.09-34.97 150.45-35.79 151.05-36.39 151.65-36.99 152.46-37.34 153.28-37.7 154.21-37.7L154.21-37.7Q155.14-37.7 155.95-37.34 156.77-36.99 157.38-36.39 157.99-35.79 158.35-34.97 158.7-34.16 158.7-33.25ZM157.55-26.15L157.55 0 150.84 0 150.84-26.15 157.55-26.15ZM169.29-14.94L169.29 0 162.63 0 162.63-26.15 164.24-26.15 166.44-23.61Q168.05-25.07 170.09-25.87 172.13-26.66 174.35-26.66L174.35-26.66Q176.74-26.66 178.86-25.74 180.99-24.83 182.58-23.23 184.16-21.63 185.08-19.49 185.99-17.36 185.99-14.94L185.99-14.94 185.99 0 179.33 0 179.33-14.94Q179.33-15.97 178.94-16.88 178.55-17.8 177.86-18.48 177.18-19.17 176.28-19.56 175.37-19.95 174.35-19.95L174.35-19.95Q173.3-19.95 172.37-19.56 171.44-19.17 170.76-18.48 170.08-17.8 169.68-16.88 169.29-15.97 169.29-14.94L169.29-14.94ZM209.33-13.31L209.33-13.31Q209.33-14.67 208.81-15.95 208.28-17.24 207.38-18.23 206.47-19.21 205.27-19.81 204.06-20.41 202.69-20.41L202.69-20.41Q201.32-20.41 200.11-19.95 198.91-19.48 198.01-18.58 197.12-17.68 196.61-16.35 196.1-15.01 196.1-13.31L196.1-13.31Q196.1-11.67 196.61-10.36 197.12-9.06 198.01-8.13 198.91-7.2 200.11-6.7 201.32-6.2 202.69-6.2L202.69-6.2Q204.06-6.2 205.27-6.8 206.47-7.4 207.38-8.39 208.28-9.38 208.81-10.66 209.33-11.94 209.33-13.31ZM216.04-26.1L216.04-3.3Q216.04-0.54 214.99 1.88 213.94 4.3 212.13 6.1 210.31 7.91 207.88 8.96 205.45 10.01 202.69 10.01L202.69 10.01 199.35 9.96 199.35 3.3 202.64 3.34Q204.2 3.34 205.3 2.94 206.4 2.54 207.16 1.84 207.91 1.15 208.37 0.24 208.82-0.66 209.09-1.66L209.09-1.66Q208.7-1.03 207.96-0.62 207.23-0.22 206.34 0.04 205.45 0.29 204.48 0.39 203.52 0.49 202.69 0.49L202.69 0.49Q199.93 0.49 197.5-0.46 195.07-1.42 193.25-3.19 191.44-4.96 190.39-7.52 189.34-10.08 189.34-13.31L189.34-13.31Q189.34-16.26 190.39-18.8 191.44-21.34 193.25-23.19 195.07-25.05 197.5-26.1 199.93-27.15 202.69-27.15L202.69-27.15Q203.96-27.15 205.2-26.83 206.45-26.51 207.62-25.95 208.79-25.39 209.86-24.63 210.92-23.88 211.85-23L211.85-23 214.43-26.1 216.04-26.1ZM249.83-28L242.82-28 242.82-13.99 249.83-13.99Q251.27-13.99 252.54-14.54 253.81-15.09 254.76-16.04 255.71-16.99 256.26-18.27 256.81-19.56 256.81-21L256.81-21Q256.81-22.44 256.26-23.72 255.71-25 254.76-25.95 253.81-26.9 252.54-27.45 251.27-28 249.83-28L249.83-28ZM242.82-7.01L242.82 0 235.81 0 235.81-35.01 249.83-35.01Q251.76-35.01 253.54-34.51 255.32-34.01 256.87-33.09 258.42-32.18 259.7-30.9 260.99-29.61 261.9-28.05 262.82-26.49 263.32-24.71 263.82-22.92 263.82-21L263.82-21Q263.82-18.12 262.72-15.56 261.62-13.01 259.72-11.11 257.81-9.2 255.26-8.11 252.71-7.01 249.83-7.01L249.83-7.01 242.82-7.01ZM292.48-13.31L292.48-13.31Q292.48-10.38 291.43-7.85 290.38-5.32 288.57-3.48 286.76-1.64 284.34-0.57 281.91 0.49 279.12 0.49L279.12 0.49Q276.36 0.49 273.93-0.57 271.51-1.64 269.69-3.48 267.87-5.32 266.82-7.85 265.77-10.38 265.77-13.31L265.77-13.31Q265.77-16.28 266.82-18.82 267.87-21.36 269.69-23.21 271.51-25.05 273.93-26.1 276.36-27.15 279.12-27.15L279.12-27.15Q281.91-27.15 284.34-26.16 286.76-25.17 288.57-23.35 290.38-21.53 291.43-18.98 292.48-16.43 292.48-13.31ZM285.76-13.31L285.76-13.31Q285.76-14.92 285.24-16.22 284.71-17.53 283.81-18.47 282.91-19.41 281.7-19.91 280.49-20.41 279.12-20.41L279.12-20.41Q277.76-20.41 276.55-19.91 275.34-19.41 274.45-18.47 273.56-17.53 273.04-16.22 272.53-14.92 272.53-13.31L272.53-13.31Q272.53-11.79 273.04-10.5 273.56-9.2 274.45-8.25 275.34-7.3 276.55-6.75 277.76-6.2 279.12-6.2L279.12-6.2Q280.49-6.2 281.7-6.71 282.91-7.23 283.81-8.15 284.71-9.08 285.24-10.4 285.76-11.72 285.76-13.31ZM314.13 0L309.08 0Q306.66 0 304.54-0.92 302.41-1.83 300.81-3.43 299.21-5.03 298.3-7.15 297.38-9.28 297.38-11.69L297.38-11.69 297.38-19.46 294.14-19.46 294.14-26.1 297.38-26.1 297.38-36.55 304.02-36.55 304.02-26.1 314.13-26.1 314.13-19.46 304.02-19.46 304.02-11.69Q304.02-10.64 304.41-9.73 304.8-8.81 305.49-8.13 306.17-7.45 307.1-7.04 308.03-6.64 309.08-6.64L309.08-6.64 314.13-6.64 314.13 0ZM357.12-13.31L357.12-13.31Q357.12-10.38 356.07-7.85 355.02-5.32 353.21-3.48 351.41-1.64 348.98-0.57 346.55 0.49 343.76 0.49L343.76 0.49Q341.01 0.49 338.58-0.57 336.15-1.64 334.33-3.48 332.51-5.32 331.46-7.85 330.41-10.38 330.41-13.31L330.41-13.31Q330.41-16.28 331.46-18.82 332.51-21.36 334.33-23.21 336.15-25.05 338.58-26.1 341.01-27.15 343.76-27.15L343.76-27.15Q346.55-27.15 348.98-26.16 351.41-25.17 353.21-23.35 355.02-21.53 356.07-18.98 357.12-16.43 357.12-13.31ZM350.4-13.31L350.4-13.31Q350.4-14.92 349.88-16.22 349.35-17.53 348.45-18.47 347.55-19.41 346.34-19.91 345.13-20.41 343.76-20.41L343.76-20.41Q342.4-20.41 341.19-19.91 339.98-19.41 339.09-18.47 338.2-17.53 337.68-16.22 337.17-14.92 337.17-13.31L337.17-13.31Q337.17-11.79 337.68-10.5 338.2-9.2 339.09-8.25 339.98-7.3 341.19-6.75 342.4-6.2 343.76-6.2L343.76-6.2Q345.13-6.2 346.34-6.71 347.55-7.23 348.45-8.15 349.35-9.08 349.88-10.4 350.4-11.72 350.4-13.31ZM368.98-19.51L368.98 0 362.32 0 362.32-19.51 359.07-19.51 359.07-26.15 362.32-26.15 362.32-27.39Q362.32-29.81 363.23-31.93 364.15-34.06 365.75-35.63 367.35-37.21 369.47-38.12 371.59-39.04 374.01-39.04L374.01-39.04 379.02-39.04 379.02-32.4 374.01-32.4Q372.94-32.4 372.02-32.02 371.11-31.64 370.43-30.97 369.76-30.3 369.37-29.38 368.98-28.47 368.98-27.39L368.98-27.39 368.98-26.15 377.16-26.15 377.16-19.51 368.98-19.51ZM402.01-13.99L402.01 0 395 0 395-35.01 419.51-35.01 419.51-28 402.01-28 402.01-21 412.51-21 412.51-13.99 402.01-13.99ZM429.11-36.55L429.11 0 422.39 0 422.39-36.55 429.11-36.55ZM459.5-26.1L459.5 0 457.89 0 455.3-3.59Q454.35-2.73 453.29-1.99 452.22-1.25 451.05-0.7 449.88-0.15 448.65 0.17 447.41 0.49 446.14 0.49L446.14 0.49Q443.39 0.49 440.96-0.44 438.53-1.37 436.71-3.14 434.89-4.91 433.84-7.47 432.79-10.03 432.79-13.31L432.79-13.31Q432.79-16.36 433.84-18.91 434.89-21.46 436.71-23.29 438.53-25.12 440.96-26.14 443.39-27.15 446.14-27.15L446.14-27.15Q447.41-27.15 448.66-26.83 449.9-26.51 451.08-25.95 452.25-25.39 453.31-24.63 454.37-23.88 455.3-23L455.3-23 457.89-26.1 459.5-26.1ZM452.78-13.31L452.78-13.31Q452.78-14.67 452.26-15.95 451.73-17.24 450.83-18.23 449.93-19.21 448.72-19.81 447.51-20.41 446.14-20.41L446.14-20.41Q444.78-20.41 443.57-19.95 442.36-19.48 441.47-18.58 440.58-17.68 440.06-16.35 439.55-15.01 439.55-13.31L439.55-13.31Q439.55-11.6 440.06-10.27 440.58-8.94 441.47-8.03 442.36-7.13 443.57-6.67 444.78-6.2 446.14-6.2L446.14-6.2Q447.51-6.2 448.72-6.8 449.93-7.4 450.83-8.39 451.73-9.38 452.26-10.66 452.78-11.94 452.78-13.31ZM478.69 0L472 0 462.03-26.15 469.63-26.15 475.34-9.84 481.03-26.15 488.65-26.15 478.69 0ZM515.69-13.31L515.69-13.31Q515.69-10.38 514.64-7.85 513.59-5.32 511.79-3.48 509.98-1.64 507.55-0.57 505.12 0.49 502.34 0.49L502.34 0.49Q499.58 0.49 497.15-0.57 494.72-1.64 492.9-3.48 491.09-5.32 490.04-7.85 488.99-10.38 488.99-13.31L488.99-13.31Q488.99-16.28 490.04-18.82 491.09-21.36 492.9-23.21 494.72-25.05 497.15-26.1 499.58-27.15 502.34-27.15L502.34-27.15Q505.12-27.15 507.55-26.16 509.98-25.17 511.79-23.35 513.59-21.53 514.64-18.98 515.69-16.43 515.69-13.31ZM508.98-13.31L508.98-13.31Q508.98-14.92 508.46-16.22 507.93-17.53 507.03-18.47 506.12-19.41 504.92-19.91 503.71-20.41 502.34-20.41L502.34-20.41Q500.97-20.41 499.76-19.91 498.56-19.41 497.66-18.47 496.77-17.53 496.26-16.22 495.75-14.92 495.75-13.31L495.75-13.31Q495.75-11.79 496.26-10.5 496.77-9.2 497.66-8.25 498.56-7.3 499.76-6.75 500.97-6.2 502.34-6.2L502.34-6.2Q503.71-6.2 504.92-6.71 506.12-7.23 507.03-8.15 507.93-9.08 508.46-10.4 508.98-11.72 508.98-13.31ZM526.04-14.4L526.04 0 519.38 0 519.38-26.15 520.99-26.15 523.19-23.05Q524.8-24.51 526.85-25.31 528.9-26.1 531.1-26.1L531.1-26.1 536.98-26.1 536.98-19.46 531.1-19.46Q530.05-19.46 529.12-19.07 528.19-18.68 527.51-17.99 526.82-17.31 526.43-16.38 526.04-15.45 526.04-14.4L526.04-14.4ZM554.14 0L554.14 0 538.91 0 538.91-6.64 554.14-6.64Q554.83-6.64 555.31-7.13 555.8-7.62 555.8-8.3L555.8-8.3Q555.8-9.01 555.31-9.23 554.83-9.45 554.14-9.45L554.14-9.45 547.21-9.45Q545.47-9.45 543.96-10.11 542.45-10.77 541.32-11.9 540.2-13.04 539.55-14.55 538.91-16.06 538.91-17.8L538.91-17.8Q538.91-19.53 539.55-21.04 540.2-22.56 541.32-23.68 542.45-24.8 543.96-25.45 545.47-26.1 547.21-26.1L547.21-26.1 560.71-26.1 560.71-19.46 547.21-19.46Q546.52-19.46 546.04-18.97 545.55-18.48 545.55-17.8L545.55-17.8Q545.55-17.09 546.04-16.59 546.52-16.09 547.21-16.09L547.21-16.09 554.14-16.09Q555.85-16.09 557.36-15.52 558.88-14.94 560-13.92 561.12-12.89 561.78-11.45 562.44-10.01 562.44-8.3L562.44-8.3Q562.44-6.57 561.78-5.07 561.12-3.56 560-2.43 558.88-1.29 557.36-0.65 555.85 0 554.14 0Z" opacity="1" transform="matrix(1,0,0,1,0,0)" fill="#6b757d" class="slogan-text-1" data-fill-palette-color="secondary" id="text-1"></path></svg></g></svg></g></svg></g></svg></g><g><svg viewBox="0 0 227.85742915136876 227.85742915136876" height="227.85742915136876" width="227.85742915136876"><g><svg></svg></g><g id="icon-0"><svg viewBox="0 0 227.85742915136876 227.85742915136876" height="227.85742915136876" width="227.85742915136876"><g><path d="M0 113.929c0-62.921 51.008-113.929 113.929-113.929 62.921 0 113.929 51.008 113.928 113.929 0 62.921-51.008 113.929-113.928 113.928-62.921 0-113.929-51.008-113.929-113.928zM113.929 220.072c58.622 0 106.144-47.522 106.143-106.143 0-58.622-47.522-106.144-106.143-106.144-58.622 0-106.144 47.522-106.144 106.144 0 58.622 47.522 106.144 106.144 106.143z" data-fill-palette-color="accent" fill="#ff0066" stroke="transparent"></path></g><g transform="matrix(1,0,0,1,97.93930849992685,47.515682798659)"><svg viewBox="0 0 31.978812151515044 132.82606355405076" height="132.82606355405076" width="31.978812151515044"><g><svg xmlns="http://www.w3.org/2000/svg" xmlns:xlink="http://www.w3.org/1999/xlink" version="1.1" x="0" y="0" viewBox="40.207 6.168 21.586999999999996 89.663" enable-background="new 0 0 100 100" xml:space="preserve" height="132.82606355405076" width="31.978812151515044" class="icon-cg-0" data-fill-palette-color="accent" id="cg-0"><path d="M50.994 6.168c-8.492 0-10.787 16.306-10.787 22.265 0 5.338 6.165 8.958 6.165 8.958 1.543 0.903 2.721 3.105 2.622 4.892 0 0-2.517 44.773-2.517 47.319 0 3.448 2.025 6.229 4.523 6.229 2.502 0 4.521-2.78 4.521-6.229 0-2.546-2.511-47.319-2.511-47.319-0.102-1.787 1.076-3.989 2.619-4.895 0 0 6.165-3.621 6.165-8.955C61.781 22.474 59.482 6.168 50.994 6.168z" fill="#ff0066" data-fill-palette-color="accent"></path></svg></g></svg></g></svg></g></svg></g></svg></g><defs></defs></svg><rect width="395.52" height="135.69831384227126" fill="none" stroke="none" visibility="hidden"></rect></g></svg></g></svg>